<svg width="25" height="23" viewBox="0 0 25 23" fill="none" xmlns="http://www.w3.org/2000/svg">
<path d="M22.1042 0.524429C20.7821 0.519741 19.7084 1.59339 19.7038 2.91552C19.7038 3.53908 19.9429 4.1392 20.3789 4.5846L15.9952 13.3566C15.9014 13.3426 15.803 13.3285 15.7045 13.3285C15.3951 13.3285 15.0857 13.3894 14.7997 13.5067L11.3959 9.67622C11.5928 9.32459 11.7006 8.93076 11.7053 8.52287C11.7053 7.19604 10.6317 6.1224 9.30484 6.1224C7.97802 6.1224 6.90438 7.19604 6.90438 8.52287C6.90906 9.09485 7.11535 9.64809 7.49512 10.0794L3.32711 17.3699C3.18646 17.3418 3.04112 17.3277 2.90047 17.3277C1.57365 17.3277 0.5 18.4014 0.5 19.7282C0.5 21.055 1.57365 22.1286 2.90047 22.1286C4.22729 22.1286 5.30094 21.055 5.30094 19.7282C5.29625 19.1562 5.08996 18.603 4.7102 18.1716L8.87351 10.8811C9.31891 10.9702 9.78306 10.9233 10.2003 10.7452L13.6041 14.5756C13.4072 14.9272 13.3041 15.3258 13.2994 15.729C13.2947 17.0558 14.3683 18.1341 15.6905 18.1388C17.0173 18.1435 18.0956 17.0698 18.1003 15.7477C18.1003 15.1242 17.8612 14.5194 17.4252 14.0693L21.8088 5.29724C21.9026 5.3113 22.0011 5.32537 22.0995 5.32537C23.4264 5.32537 24.5 4.25172 24.5 2.9249C24.5 1.59808 23.431 0.524429 22.1042 0.524429Z" fill="#2ABA3C"/>
</svg>
